<mxfile host="app.diagrams.net" modified="2023-04-23T22:35:52.866Z" agent="Mozilla/5.0 (Windows NT 10.0; Win64; x64) AppleWebKit/537.36 (KHTML, like Gecko) Chrome/112.0.0.0 Safari/537.36" etag="9wnGKtanTw-xZ35gFzZk" version="21.1.1" type="device">
  <diagram name="Page-1" id="JIYty8xP4OqwfFVeQgJH">
    <mxGraphModel dx="1687" dy="936" grid="1" gridSize="10" guides="1" tooltips="1" connect="1" arrows="1" fold="1" page="1" pageScale="1" pageWidth="850" pageHeight="1100" math="0" shadow="0">
      <root>
        <mxCell id="0" />
        <mxCell id="1" parent="0" />
        <mxCell id="kg2L3e3hCskWdX56hF0H-348" style="edgeStyle=orthogonalEdgeStyle;rounded=0;orthogonalLoop=1;jettySize=auto;html=1;exitX=1;exitY=0.5;exitDx=0;exitDy=0;entryX=-0.01;entryY=0.381;entryDx=0;entryDy=0;entryPerimeter=0;" edge="1" parent="1" source="kg2L3e3hCskWdX56hF0H-1" target="kg2L3e3hCskWdX56hF0H-2">
          <mxGeometry relative="1" as="geometry" />
        </mxCell>
        <mxCell id="kg2L3e3hCskWdX56hF0H-1" value="&lt;div style=&quot;color: rgb(212, 212, 212); background-color: rgb(30, 30, 30); font-family: Consolas, &amp;quot;Courier New&amp;quot;, monospace; font-size: 14px; line-height: 19px;&quot;&gt;public &lt;span style=&quot;color: #4ec9b0;&quot;&gt;IEnumerator&lt;/span&gt; &lt;span style=&quot;color: #dcdcaa;&quot;&gt;DoorTestSingleGroup&lt;/span&gt;()&lt;/div&gt;" style="ellipse;whiteSpace=wrap;html=1;" vertex="1" parent="1">
          <mxGeometry width="330" height="120" as="geometry" />
        </mxCell>
        <mxCell id="kg2L3e3hCskWdX56hF0H-349" style="edgeStyle=orthogonalEdgeStyle;rounded=0;orthogonalLoop=1;jettySize=auto;html=1;exitX=0.5;exitY=1;exitDx=0;exitDy=0;entryX=0.473;entryY=-0.036;entryDx=0;entryDy=0;entryPerimeter=0;" edge="1" parent="1" source="kg2L3e3hCskWdX56hF0H-2" target="kg2L3e3hCskWdX56hF0H-5">
          <mxGeometry relative="1" as="geometry" />
        </mxCell>
        <mxCell id="kg2L3e3hCskWdX56hF0H-2" value="&lt;div style=&quot;color: rgb(212, 212, 212); background-color: rgb(30, 30, 30); font-family: Consolas, &amp;quot;Courier New&amp;quot;, monospace; font-size: 14px; line-height: 19px;&quot;&gt;yield &lt;span style=&quot;color: #c586c0;&quot;&gt;return&lt;/span&gt; &lt;span style=&quot;color: #dcdcaa;&quot;&gt;PrepareScene&lt;/span&gt;();&lt;/div&gt;" style="ellipse;whiteSpace=wrap;html=1;" vertex="1" parent="1">
          <mxGeometry x="360" y="20" width="230" height="100" as="geometry" />
        </mxCell>
        <mxCell id="kg2L3e3hCskWdX56hF0H-350" style="edgeStyle=orthogonalEdgeStyle;rounded=0;orthogonalLoop=1;jettySize=auto;html=1;exitX=0;exitY=1;exitDx=0;exitDy=0;" edge="1" parent="1" source="kg2L3e3hCskWdX56hF0H-5" target="kg2L3e3hCskWdX56hF0H-6">
          <mxGeometry relative="1" as="geometry" />
        </mxCell>
        <mxCell id="kg2L3e3hCskWdX56hF0H-5" value="&lt;div style=&quot;color: rgb(212, 212, 212); background-color: rgb(30, 30, 30); font-family: Consolas, &amp;quot;Courier New&amp;quot;, monospace; font-size: 14px; line-height: 19px;&quot;&gt;var &lt;span style=&quot;color: #9cdcfe;&quot;&gt;door&lt;/span&gt; = &lt;span style=&quot;color: #9cdcfe;&quot;&gt;DoorPoint&lt;/span&gt;.&lt;span style=&quot;color: #9cdcfe;&quot;&gt;Instance&lt;/span&gt;;&lt;/div&gt;" style="ellipse;whiteSpace=wrap;html=1;" vertex="1" parent="1">
          <mxGeometry x="350" y="170" width="270" height="100" as="geometry" />
        </mxCell>
        <mxCell id="kg2L3e3hCskWdX56hF0H-351" style="edgeStyle=orthogonalEdgeStyle;rounded=0;orthogonalLoop=1;jettySize=auto;html=1;exitX=0;exitY=1;exitDx=0;exitDy=0;entryX=0.5;entryY=0;entryDx=0;entryDy=0;" edge="1" parent="1" source="kg2L3e3hCskWdX56hF0H-6" target="kg2L3e3hCskWdX56hF0H-344">
          <mxGeometry relative="1" as="geometry" />
        </mxCell>
        <mxCell id="kg2L3e3hCskWdX56hF0H-6" value="&lt;div style=&quot;color: rgb(212, 212, 212); background-color: rgb(30, 30, 30); font-family: Consolas, &amp;quot;Courier New&amp;quot;, monospace; font-size: 14px; line-height: 19px;&quot;&gt;GameStateManager.&lt;span style=&quot;color: #9cdcfe;&quot;&gt;Instance&lt;/span&gt;.&lt;span style=&quot;color: #dcdcaa;&quot;&gt;StartCustomDay&lt;/span&gt;(&lt;span style=&quot;color: #b5cea8;&quot;&gt;1&lt;/span&gt;, &lt;span style=&quot;color: #b5cea8;&quot;&gt;1&lt;/span&gt;, &lt;span style=&quot;color: #b5cea8;&quot;&gt;10&lt;/span&gt;);&lt;/div&gt;" style="ellipse;whiteSpace=wrap;html=1;" vertex="1" parent="1">
          <mxGeometry x="265" y="300" width="440" height="100" as="geometry" />
        </mxCell>
        <mxCell id="kg2L3e3hCskWdX56hF0H-352" style="edgeStyle=orthogonalEdgeStyle;rounded=0;orthogonalLoop=1;jettySize=auto;html=1;exitX=0;exitY=1;exitDx=0;exitDy=0;entryX=0.254;entryY=0.066;entryDx=0;entryDy=0;entryPerimeter=0;" edge="1" parent="1" source="kg2L3e3hCskWdX56hF0H-344" target="kg2L3e3hCskWdX56hF0H-345">
          <mxGeometry relative="1" as="geometry" />
        </mxCell>
        <mxCell id="kg2L3e3hCskWdX56hF0H-344" value="&lt;div style=&quot;color: rgb(212, 212, 212); background-color: rgb(30, 30, 30); font-family: Consolas, &amp;quot;Courier New&amp;quot;, monospace; font-size: 14px; line-height: 19px;&quot;&gt;&amp;nbsp;yield &lt;span style=&quot;color: #c586c0;&quot;&gt;return&lt;/span&gt; &lt;span style=&quot;color: #569cd6;&quot;&gt;null&lt;/span&gt;;&lt;/div&gt;" style="ellipse;whiteSpace=wrap;html=1;" vertex="1" parent="1">
          <mxGeometry x="395" y="430" width="180" height="100" as="geometry" />
        </mxCell>
        <mxCell id="kg2L3e3hCskWdX56hF0H-353" style="edgeStyle=orthogonalEdgeStyle;rounded=0;orthogonalLoop=1;jettySize=auto;html=1;exitX=0;exitY=0.5;exitDx=0;exitDy=0;entryX=0.5;entryY=0;entryDx=0;entryDy=0;" edge="1" parent="1" source="kg2L3e3hCskWdX56hF0H-345" target="kg2L3e3hCskWdX56hF0H-346">
          <mxGeometry relative="1" as="geometry" />
        </mxCell>
        <mxCell id="kg2L3e3hCskWdX56hF0H-354" style="edgeStyle=orthogonalEdgeStyle;rounded=0;orthogonalLoop=1;jettySize=auto;html=1;exitX=1;exitY=0.5;exitDx=0;exitDy=0;entryX=0.5;entryY=0;entryDx=0;entryDy=0;" edge="1" parent="1" source="kg2L3e3hCskWdX56hF0H-345" target="kg2L3e3hCskWdX56hF0H-347">
          <mxGeometry relative="1" as="geometry" />
        </mxCell>
        <mxCell id="kg2L3e3hCskWdX56hF0H-345" value="&lt;div style=&quot;color: rgb(212, 212, 212); background-color: rgb(30, 30, 30); font-family: Consolas, &amp;quot;Courier New&amp;quot;, monospace; font-size: 14px; line-height: 19px;&quot;&gt;Assert.&lt;span style=&quot;color: #dcdcaa;&quot;&gt;IsEmpty&lt;/span&gt;(&lt;span style=&quot;color: #9cdcfe;&quot;&gt;door&lt;/span&gt;.&lt;span style=&quot;color: #9cdcfe;&quot;&gt;GroupList&lt;/span&gt;);&lt;/div&gt;" style="ellipse;whiteSpace=wrap;html=1;" vertex="1" parent="1">
          <mxGeometry x="350" y="570" width="280" height="140" as="geometry" />
        </mxCell>
        <mxCell id="kg2L3e3hCskWdX56hF0H-346" value="Customer will sit at a table" style="ellipse;whiteSpace=wrap;html=1;" vertex="1" parent="1">
          <mxGeometry x="190" y="770" width="180" height="100" as="geometry" />
        </mxCell>
        <mxCell id="kg2L3e3hCskWdX56hF0H-347" value="Customer will wait at the door" style="ellipse;whiteSpace=wrap;html=1;" vertex="1" parent="1">
          <mxGeometry x="600" y="790" width="190" height="80" as="geometry" />
        </mxCell>
        <mxCell id="kg2L3e3hCskWdX56hF0H-355" value="False" style="text;html=1;align=center;verticalAlign=middle;resizable=0;points=[];autosize=1;strokeColor=none;fillColor=none;" vertex="1" parent="1">
          <mxGeometry x="245" y="595" width="50" height="30" as="geometry" />
        </mxCell>
        <mxCell id="kg2L3e3hCskWdX56hF0H-356" value="Text" style="text;html=1;align=center;verticalAlign=middle;resizable=0;points=[];autosize=1;strokeColor=none;fillColor=none;" vertex="1" parent="1">
          <mxGeometry x="655" y="595" width="50" height="30" as="geometry" />
        </mxCell>
      </root>
    </mxGraphModel>
  </diagram>
</mxfile>
